<?xml version="1.0" encoding="utf-8"?>
<!-- Generator: Adobe Illustrator 19.2.1, SVG Export Plug-In . SVG Version: 6.00 Build 0)  -->
<svg version="1.1" id="layer" xmlns="http://www.w3.org/2000/svg" xmlns:xlink="http://www.w3.org/1999/xlink" x="0px" y="0px"
	 viewBox="0 0 652 652" style="enable-background:new 0 0 652 652;" xml:space="preserve">
<style type="text/css">
	.st0{clip-path:url(#SVGID_2_);fill:url(#SVGID_3_);}
	.st1{clip-path:url(#SVGID_5_);fill:url(#SVGID_6_);}
	.st2{fill:#395F6F;}
</style>
<g>
	<defs>
		<path id="SVGID_1_" d="M508.4,226.3c-4.2,0-6.3,5.2-3.2,8.1l88.7,81.8l4.7-4.3c33-30.5,11.5-85.6-33.5-85.6H508.4z"/>
	</defs>
	<clipPath id="SVGID_2_">
		<use xlink:href="#SVGID_1_"  style="overflow:visible;"/>
	</clipPath>
	
		<linearGradient id="SVGID_3_" gradientUnits="userSpaceOnUse" x1="121.5746" y1="628.8127" x2="126.7763" y2="628.8127" gradientTransform="matrix(21.3241 0 0 -21.3241 -2088.7156 13680.1318)">
		<stop  offset="0" style="stop-color:#F37021"/>
		<stop  offset="0.239" style="stop-color:#F78E18"/>
		<stop  offset="0.5581" style="stop-color:#FBAF0E"/>
		<stop  offset="0.8233" style="stop-color:#FEC407"/>
		<stop  offset="1" style="stop-color:#FFCB05"/>
	</linearGradient>
	<rect x="502.1" y="226.3" class="st0" width="129.6" height="89.9"/>
</g>
<g>
	<defs>
		<path id="SVGID_4_" d="M555.8,351.5l-50.5,46.6c-3.1,2.9-1.1,8.1,3.2,8.1h57.9c44.5,0,65.9-54.7,33.2-84.9l-5.5-5.1l-33.9-31.3
			C575.5,304.7,576.1,332.6,555.8,351.5"/>
	</defs>
	<clipPath id="SVGID_5_">
		<use xlink:href="#SVGID_4_"  style="overflow:visible;"/>
	</clipPath>
	
		<linearGradient id="SVGID_6_" gradientUnits="userSpaceOnUse" x1="102.004" y1="618.5493" x2="107.2057" y2="618.5493" gradientTransform="matrix(-11.8864 21.5016 21.5016 11.8864 -11496.1484 -9243.4375)">
		<stop  offset="0" style="stop-color:#0066B3"/>
		<stop  offset="3.833693e-002" style="stop-color:#006BB7"/>
		<stop  offset="0.3085" style="stop-color:#008DD1"/>
		<stop  offset="0.5659" style="stop-color:#00A5E3"/>
		<stop  offset="0.8028" style="stop-color:#00B4EE"/>
		<stop  offset="1" style="stop-color:#00B9F2"/>
	</linearGradient>
	<polygon class="st1" points="683.6,313.3 601.8,461.2 450.8,377.8 532.6,229.9 	"/>
</g>
<g>
	<path class="st2" d="M52.8,361.2H17.7c-1.6,0-2.4-0.8-2.4-2.4v-85.5c0-1.6,0.8-2.4,2.4-2.4h33.1c8,0,14.2,1.8,18.9,5.3
		c5.3,4,8.2,10.1,8.2,17.3c0,5.5-1.9,10.1-5.3,13.5c-1.3,1.3-2.8,2.3-4.3,3.3c3.7,1.1,7,2.9,9.5,5.3c4.7,4.3,7.1,10.4,7.1,17.5
		c0,8.9-3.3,16.3-9.4,21.3C69.9,358.9,62.2,361.2,52.8,361.2 M31.2,284.7v21.4h18.3c3.7,0,6.7-0.7,9-2.5c2.5-1.8,3.9-4.7,3.9-8.2
		c0-3.7-1.3-6.5-3.9-8.3c-2.3-1.6-5.2-2.4-9.3-2.4H31.2z M31.2,319.1v28.2h21c5.1,0,9-1.1,11.9-3.5c3.3-2.4,4.9-6.3,4.9-11
		c0-4.6-1.6-8.2-4.6-10.5c-2.8-2.3-6.6-3.3-11.4-3.3H31.2z"/>
	<path class="st2" d="M106.4,361.2H95.7c-1.6,0-2.4-0.8-2.4-2.4v-41.1c0-6.1,1.8-10.6,5.2-13.9c3.3-2.9,8.1-4.5,14.2-4.5h14.1
		c1.6,0,2.4,0.8,2.4,2.4v9.3c0,1.6-0.8,2.4-2.4,2.4h-10.8c-4.8,0-7.1,2.3-7.1,7v38.3C108.8,360.3,108,361.2,106.4,361.2"/>
	<path class="st2" d="M182.8,352.2c-5.3,6.7-13,10.8-22,10.8c-8.6,0-16-3.5-21.6-10c-5.2-6-7.8-13.9-7.8-22.8
		c0-8.7,2.8-16.6,7.8-22.6c5.5-6.5,13-9.9,21.6-9.9c9,0,16.7,4,22,10.6l0.8-6.6c0.4-1.6,1.1-2.3,2.5-2.3h8.1c1.6,0,2.4,0.8,2.4,2.4
		v57c0,1.6-0.8,2.4-2.4,2.4h-8.1c-1.4,0-2.4-0.7-2.5-2.3L182.8,352.2z M151.7,343.5c3.3,3.5,7.7,5.5,12.8,5.5c5.1,0,9.5-2,12.8-5.5
		c3-3.5,4.8-8.1,4.8-13.3c0-5.1-1.8-9.6-4.8-13c-3.4-3.5-7.7-5.5-12.8-5.5c-5.1,0-9.5,1.9-12.8,5.4c-3,3.5-4.8,8.1-4.8,13.1
		C146.9,335.4,148.7,340,151.7,343.5"/>
	<path class="st2" d="M205,358.8v-9.3c0-1.6,0.8-2.4,2.4-2.4H233c1.8,0,3.3-0.5,4.2-1.4c0.6-0.6,1.1-1.7,1.1-2.8
		c0-1.1-0.4-2-1.2-2.9c-0.5-0.5-1.2-1-2-1.3l-17.8-7.7c-3.4-1.4-6-3.1-7.9-5.1c-2.9-2.9-4.2-6.4-4.2-10.6c0-4.3,1.4-8,4.2-10.7
		c3.3-3.3,8.4-5.2,15.1-5.2h22.2c1.6,0,2.4,0.8,2.4,2.4v9.3c0,1.6-0.8,2.4-2.4,2.4h-21.1c-1.4,0-2.5,0.5-3.1,1.1
		c-0.5,0.5-0.7,1.1-0.7,1.9c0,0.6,0.2,1.3,0.7,1.8c0.5,0.5,1.3,1,2.4,1.4l15.9,6.9c3.4,1.4,5.9,3.1,7.8,5.1c3,3,4.5,6.7,4.5,11.3
		c0,5.1-1.9,9.3-4.9,12.5c-3.5,3.5-8.9,5.7-15.2,5.7h-25.4C205.8,361.2,205,360.3,205,358.8"/>
	<path class="st2" d="M274.4,361.2h-10.7c-1.6,0-2.4-0.8-2.4-2.4v-85.5c0-1.6,0.8-2.4,2.4-2.4h10.7c1.6,0,2.4,0.8,2.4,2.4v49.4h1.3
		l19.8-21.4c1.1-1.3,1.8-1.8,3.6-1.8h13.6c1,0,1.6,1.3,1,2.2l-24.9,26.5l26.4,31.1c0.6,0.8,0.2,2-1.1,2h-13c-2.3,0-3.6-0.6-4.9-2.2
		l-20-23.9h-1.7v23.6C276.8,360.3,275.9,361.2,274.4,361.2"/>
	<path class="st2" d="M349.2,363c-9.2,0-17.3-3.4-23.4-9.5c-6-6.1-9.2-14.5-9.2-23.6c0-8.7,3.3-16.7,9.4-22.8
		c6-6.1,14.2-9.4,22.9-9.4c9.2,0,17.2,3.4,23,9.6c5.5,6.1,8.7,14.3,8.7,23.4v1.1c0,1.3-1,2.3-2,2.3h-47.7c0.6,4,2.2,7.2,4.6,10
		c3.3,3.5,8,5.4,13.7,5.4c6.5,0,12.5-2.9,15.5-7.9c0.6-1.1,1.4-1.7,2.8-1.7h9.5c1.6,0,2.5,1.2,2,3c-2.3,6.1-6.1,11.3-11.7,14.8
		C362.2,361.2,355.8,363,349.2,363 M331.9,322.3h33.6c-1.9-7.2-7.7-11.3-16.4-11.3c-5.5,0-10.1,1.8-13.5,5.3
		C334,318.1,332.7,320,331.9,322.3"/>
	<path class="st2" d="M402.1,361.2h-10.7c-1.6,0-2.4-0.8-2.4-2.4v-57c0-1.6,0.8-2.4,2.4-2.4h6.5c1.8,0,2.8,0.8,3.1,2.7l1.2,6.3
		c4.2-6.5,11-9.8,20.4-9.8h2.9c6.6,0,12.1,2.3,15.8,6.6c1,1.1,1.8,2.4,2.6,3.9c4.1-7,11.1-10.5,20.7-10.5h2.9c6.6,0,12,2.3,15.8,6.6
		c3.5,4,5.3,9.6,5.3,16.4v37.2c0,1.6-0.8,2.4-2.4,2.4h-10.8c-1.6,0-2.4-0.8-2.4-2.4v-34.1c0-7.7-3.9-12-10.6-12h-3.5
		c-7.6,0-12.3,4.9-12.3,13.5v32.7c0,1.6-0.8,2.4-2.4,2.4h-10.8c-1.6,0-2.4-0.8-2.4-2.4v-34.1c0-7.7-3.9-12-10.6-12h-3.5
		c-7.6,0-12.3,4.9-12.3,13.5v32.7C404.5,360.3,403.7,361.2,402.1,361.2"/>
</g>
</svg>
