<?xml version="1.0" encoding="UTF-8" standalone="no"?>
<!-- Created with Inkscape (http://www.inkscape.org/) -->

<svg
   width="154.49855mm"
   height="23.991976mm"
   viewBox="0 0 154.49855 23.991976"
   version="1.1"
   id="svg137"
   xml:space="preserve"
   xmlns="http://www.w3.org/2000/svg"
   xmlns:svg="http://www.w3.org/2000/svg"><defs
     id="defs134"><clipPath
       clipPathUnits="userSpaceOnUse"
       id="clipPath157"><path
         d="M 0,595.281 H 841.89 V 0 H 0 Z"
         id="path155" /></clipPath></defs><g
     id="layer1"
     transform="translate(-40.495593,-93.46551)" /><g
     id="g151"
     transform="matrix(0.35277776,0,0,-0.35277778,-71.850573,116.5364)"><g
       id="g153"
       clip-path="url(#clipPath157)"><g
         id="g159"
         transform="translate(251.6758,268.1064)"><path
           d="M 0,0 C -7.7,-7.701 -20.302,-7.701 -28.003,0 L -42.229,14.227 C -49.93,21.928 -49.93,34.53 -42.23,42.23 l 14.227,14.228 c 7.701,7.7 20.303,7.7 28.003,0 L 14.227,42.23 c 7.701,-7.7 7.701,-20.302 0,-28.003 z"
           style="fill:#ed1c24;fill-opacity:1;fill-rule:nonzero;stroke:none"
           id="path161" /></g><g
         id="g163"
         transform="translate(229.2368,275.4365)"><path
           d="m 0,0 c -1.131,0 -2.053,0.886 -2.1,2.016 -0.023,0.561 0.174,1.098 0.554,1.511 0.38,0.414 0.9,0.656 1.461,0.678 C 1.073,4.26 2.056,3.351 2.105,2.19 2.152,1.031 1.249,0.05 0.09,0.002 0.06,0.001 0.03,0 0,0"
           style="fill:#ffffff;fill-opacity:1;fill-rule:nonzero;stroke:none"
           id="path165" /></g><g
         id="g167"
         transform="translate(236.8921,314.2715)"><path
           d="m 0,0 c -1.155,0 -2.079,-0.361 -2.827,-1.104 -1.613,-1.604 -2.46,-4.913 -2.384,-9.319 0.09,-5.431 1.384,-16.088 5.656,-21.574 0.693,-0.889 1.437,-1.599 2.214,-2.11 0.752,-0.498 1.595,-0.984 2.913,-0.984 0.357,0 0.741,0.036 1.142,0.109 2.45,0.587 5.518,3.314 7.8,6.943 0.348,0.553 0.946,0.883 1.599,0.883 0.354,0 0.701,-0.1 1.002,-0.289 0.427,-0.269 0.724,-0.688 0.836,-1.179 0.112,-0.492 0.027,-0.998 -0.242,-1.424 -2.886,-4.589 -6.697,-7.812 -10.192,-8.621 -0.013,-0.005 -0.05,-0.013 -0.088,-0.019 -0.641,-0.118 -1.272,-0.177 -1.871,-0.177 -2.255,0 -3.846,0.858 -4.979,1.607 -1.121,0.741 -2.167,1.731 -3.111,2.941 -6.014,7.724 -6.426,22.204 -6.453,23.829 -0.065,3.854 0.489,9.074 3.5,12.062 1.468,1.457 3.309,2.196 5.469,2.196 h 0.351 c 2.166,0 4.009,-0.739 5.477,-2.196 3.01,-2.988 3.564,-8.208 3.5,-12.062 -0.069,-4.014 -0.805,-11.79 -4.967,-18.763 -0.34,-0.566 -0.961,-0.919 -1.622,-0.919 -0.341,0 -0.675,0.092 -0.966,0.267 -0.892,0.532 -1.185,1.693 -0.653,2.588 2.914,4.878 4.322,10.246 4.433,16.892 0.075,4.407 -0.772,7.716 -2.385,9.319 C 2.405,-0.361 1.482,0 0.331,0 Z"
           style="fill:#ffffff;fill-opacity:1;fill-rule:nonzero;stroke:none"
           id="path169" /></g><g
         id="g171"
         transform="translate(325.5747,285.7646)"><path
           d="m 0,0 c -4.495,0 -7.914,4.56 -7.914,10.183 0,5.621 3.419,10.18 7.914,10.18 4.507,0 7.922,-4.559 7.922,-10.18 C 7.922,4.56 4.507,0 0,0 m 0,23.149 c -9.384,0 -15.002,-5.804 -15.002,-12.966 0,-7.169 5.618,-12.966 15.002,-12.966 9.391,0 15.016,5.797 15.016,12.966 0,7.162 -5.625,12.966 -15.016,12.966"
           style="fill:#ed1c24;fill-opacity:1;fill-rule:nonzero;stroke:none"
           id="path173" /></g><g
         id="g175"
         transform="translate(341.8691,305.0879)"><path
           d="m 0,0 h 9.872 v -21.032 h 7.453 V 0 h 8.338 V 2.868 H 0 Z"
           style="fill:#ed1c24;fill-opacity:1;fill-rule:nonzero;stroke:none"
           id="path177" /></g><g
         id="g179"
         transform="translate(370.2446,305.0879)"><path
           d="m 0,0 h 8.331 v -21.032 h 7.441 V 0 h 9.892 V 2.868 H 0 Z"
           style="fill:#ed1c24;fill-opacity:1;fill-rule:nonzero;stroke:none"
           id="path181" /></g><g
         id="g183"
         transform="translate(295.749,288.3437)"><path
           d="M 0,0 V 19.612 H -7.143 V -1.437 c 0,-1.575 1.271,-2.848 2.846,-2.848 h 18.263 v 2.861 H 1.427 C 0.644,-1.424 0,-0.785 0,0"
           style="fill:#ed1c24;fill-opacity:1;fill-rule:nonzero;stroke:none"
           id="path185" /></g><g
         id="g187"
         transform="translate(399.9512,305.1152)"><path
           d="m 0,0 v -18.209 c 0,-1.574 1.281,-2.848 2.854,-2.848 h 19.464 v 2.824 H 8.577 c -0.791,0 -1.418,0.637 -1.418,1.422 v 7.042 H 22.1 v 2.8 H 7.159 v 5.57 c 0,0.776 0.627,1.422 1.418,1.422 H 22.318 V 2.84 H 2.849 C 1.281,2.84 0,1.574 0,0"
           style="fill:#ed1c24;fill-opacity:1;fill-rule:nonzero;stroke:none"
           id="path189" /></g><g
         id="g191"
         transform="translate(449.5273,286.2588)"><path
           d="m 0,0 c -4.869,0 -10.111,3.041 -10.111,9.711 0,6.699 5.242,9.749 10.111,9.749 2.595,0 5.106,-0.859 6.344,-1.66 l 0.684,-0.44 0.951,4.685 -0.356,0.204 c -1.469,0.824 -4.059,1.817 -8.077,1.817 -7.197,0 -14.843,-5.033 -14.843,-14.355 0,-9.3 7.646,-14.314 14.843,-14.314 3.32,0 5.338,0.376 7.188,1.352 L 6.967,-3.127 8.12,2.245 7.022,1.585 C 5.321,0.566 2.826,0 0,0"
           style="fill:#054975;fill-opacity:1;fill-rule:nonzero;stroke:none"
           id="path193" /></g><g
         id="g195"
         transform="translate(479.6484,298.311)"><path
           d="m 0,0 h -12.554 v 11.471 h -5.143 v -27.629 h 5.143 V -4.559 H 0 V -16.158 H 5.126 V 11.471 H 0 Z"
           style="fill:#054975;fill-opacity:1;fill-rule:nonzero;stroke:none"
           id="path197" /></g><g
         id="g199"
         transform="translate(495.2549,293.75)"><path
           d="M 0,0 H 8.588 V 4.561 H 0 v 6.911 h 10.254 v 4.56 H -5.144 v -27.629 h 16.846 v 4.569 L 0,-7.028 Z"
           style="fill:#054975;fill-opacity:1;fill-rule:nonzero;stroke:none"
           id="path201" /></g><g
         id="g203"
         transform="translate(536.1279,309.7822)"><path
           d="M 0,0 C 0,0 -9.14,-17.924 -9.929,-19.699 -10.612,-18.202 -20,0 -20,0 h -3.335 l -2.384,-27.629 h 4.686 c 0,0 1.312,15.336 1.389,16.4 0.718,-1.513 8.477,-16.606 8.477,-16.606 h 2.172 c 0,0 7.617,14.939 8.433,16.651 0.077,-1.313 1.432,-16.445 1.432,-16.445 H 5.81 L 3.339,0 Z"
           style="fill:#054975;fill-opacity:1;fill-rule:nonzero;stroke:none"
           id="path205" /></g><path
         d="m 546.681,282.153 h 5.139 v 27.629 h -5.139 z"
         style="fill:#054975;fill-opacity:1;fill-rule:nonzero;stroke:none"
         id="path207" /><g
         id="g209"
         transform="translate(571.3516,286.2588)"><path
           d="m 0,0 c -4.874,0 -10.118,3.041 -10.118,9.711 0,6.699 5.244,9.749 10.118,9.749 2.591,0 5.101,-0.859 6.34,-1.66 l 0.681,-0.44 0.952,4.685 -0.351,0.204 c -1.472,0.824 -4.063,1.817 -8.08,1.817 -7.193,0 -14.837,-5.033 -14.837,-14.355 0,-9.3 7.644,-14.314 14.837,-14.314 3.323,0 5.338,0.376 7.189,1.352 L 6.962,-3.127 8.119,2.245 7.017,1.585 C 5.314,0.566 2.825,0 0,0"
           style="fill:#054975;fill-opacity:1;fill-rule:nonzero;stroke:none"
           id="path211" /></g><g
         id="g213"
         transform="translate(596.2617,293.3271)"><path
           d="m 0,0 h -5.91 c 0,0 2.762,6.841 2.961,7.426 C -2.727,6.761 0,0 0,0 m -3.991,16.828 -11.758,-28.002 h 5.151 l 2.867,6.86 H 1.82 l 2.867,-6.86 H 9.963 L -1.799,16.828 Z"
           style="fill:#054975;fill-opacity:1;fill-rule:nonzero;stroke:none"
           id="path215" /></g><g
         id="g217"
         transform="translate(613.7998,286.7217)"><path
           d="M 0,0 V 23.073 H -5.144 V -4.568 H 11.665 V 0 Z"
           style="fill:#054975;fill-opacity:1;fill-rule:nonzero;stroke:none"
           id="path219" /></g><g
         id="g221"
         transform="translate(621.6406,325.8203)"><path
           d="m 0,0 c -6.846,-0.139 -12.505,-5.708 -12.69,-12.444 h 4.555 c 0.184,4.3 3.716,7.887 8.135,7.887 h 15.421 v -26.56 c 0,-4.369 -3.506,-7.848 -8.016,-7.989 v -4.561 c 6.941,0.267 12.424,5.746 12.574,12.55 V 0 Z"
           style="fill:#8cc63f;fill-opacity:1;fill-rule:nonzero;stroke:none"
           id="path223" /></g></g></g></svg>
